Land_normalized_Precision Landing04_filtered_grf
version=1
nRows=20
nColumns=37
inDegrees=yes
endheader
time		1_ground_force_vx		1_ground_force_vy		1_ground_force_vz		1_ground_force_px		1_ground_force_py		1_ground_force_pz		1_ground_torque_x		1_ground_torque_y		1_ground_torque_z		2_ground_force_vx		2_ground_force_vy		2_ground_force_vz		2_ground_force_px		2_ground_force_py		2_ground_force_pz		2_ground_torque_x		2_ground_torque_y		2_ground_torque_z		3_ground_force_vx		3_ground_force_vy		3_ground_force_vz		3_ground_force_px		3_ground_force_py		3_ground_force_pz		3_ground_torque_x		3_ground_torque_y		3_ground_torque_z		4_ground_force_vx		4_ground_force_vy		4_ground_force_vz		4_ground_force_px		4_ground_force_py		4_ground_force_pz		4_ground_torque_x		4_ground_torque_y		4_ground_torque_z		
1.067000		-51.708363		912.630962		229.702026		0.113775		0.000000		0.239949		-0.712292		12.571651		3.164186		53.467912		705.145518		151.082111		-0.127694		0.000000		0.301417		2.394658		31.581232		6.766489		1.153925		-1.512329		-0.229567		0.352333		1.256223		1.892188		-0.002803		0.017354		-0.002988		-3.595847		0.651195		3.141778		-0.288870		1.265030		1.900738		-0.035860		0.132504		-0.005480		
1.070182		-53.138007		902.484467		217.802358		0.113254		0.000000		0.237568		-0.731026		12.415572		2.996327		52.408737		679.052769		140.332681		-0.127131		0.000000		0.301242		2.289832		29.668998		6.131404		1.120598		-1.487505		-0.212312		0.352322		1.256245		1.892215		-0.001718		0.011424		-0.000806		-3.434585		0.662290		2.909254		-0.288884		1.265039		1.900783		-0.038286		0.136439		-0.006107		
1.073364		-53.917010		892.518358		208.241747		0.112967		0.000000		0.236070		-0.744715		12.327684		2.876285		48.863322		651.487118		131.197046		-0.126032		0.000000		0.300301		2.091943		27.891465		5.616817		1.092541		-1.403612		-0.245600		0.352306		1.256263		1.892249		-0.001221		0.005222		0.000692		-3.287794		0.704136		2.745940		-0.288899		1.265042		1.900824		-0.037382		0.139679		-0.005784		
1.076545		-54.076903		883.354744		200.741767		0.113206		0.000000		0.236091		-0.751741		12.279815		2.790578		45.283710		624.179133		124.199704		-0.125029		0.000000		0.298938		1.920284		26.468705		5.266766		1.086155		-1.291029		-0.321370		0.352287		1.256275		1.892290		-0.001769		0.000049		0.001654		-3.184760		0.759417		2.689072		-0.288915		1.265039		1.900858		-0.033825		0.140305		-0.004826		
1.079727		-53.444124		874.313308		195.115917		0.113740		0.000000		0.237158		-0.763250		12.486340		2.786502		43.566017		598.593242		120.171773		-0.124718		0.000000		0.297429		1.867732		25.662374		5.151916		1.128179		-1.172175		-0.429499		0.352271		1.256279		1.892333		-0.003432		-0.003872		0.002301		-3.160673		0.801111		2.733096		-0.288927		1.265033		1.900887		-0.029792		0.138084		-0.003947		
1.082909		-52.176455		864.324617		191.244384		0.114224		0.000000		0.238423		-0.778929		12.903310		2.855043		43.798528		575.553374		119.236123		-0.125257		0.000000		0.295926		1.940795		25.503629		5.283562		1.232001		-1.057421		-0.550114		0.352256		1.256274		1.892381		-0.005758		-0.006863		0.002803		-3.233344		0.814793		2.831317		-0.288934		1.265027		1.900913		-0.027573		0.134671		-0.003691		
1.086091		-50.834200		852.748093		188.886088		0.114485		0.000000		0.239260		-0.783332		13.140465		2.910650		44.654501		555.347756		120.555368		-0.126336		0.000000		0.294479		2.071126		25.757443		5.591497		1.384303		-0.953909		-0.650307		0.352244		1.256263		1.892430		-0.007855		-0.008827		0.003487		-3.390221		0.806137		2.919028		-0.288934		1.265024		1.900945		-0.028192		0.132546		-0.004136		
1.089273		-49.845742		839.767686		187.571571		0.114482		0.000000		0.239382		-0.770827		12.986372		2.900651		44.684829		537.929107		122.773285		-0.127447		0.000000		0.293088		2.167543		26.093407		5.955455		1.543890		-0.875629		-0.690858		0.352232		1.256248		1.892483		-0.008702		-0.008951		0.004889		-3.591101		0.789985		2.943662		-0.288929		1.265021		1.900987		-0.030934		0.133492		-0.004986		
1.092455		-49.100232		826.353108		186.821729		0.114204		0.000000		0.238795		-0.754400		12.696496		2.870421		43.463080		523.130123		124.852531		-0.128275		0.000000		0.291757		2.186124		26.312630		6.279904		1.656905		-0.841655		-0.647767		0.352218		1.256234		1.892535		-0.007729		-0.006440		0.007291		-3.790278		0.773151		2.890678		-0.288923		1.265019		1.901041		-0.034032		0.137622		-0.005900		
1.095636		-48.235706		813.988855		186.354910		0.113749		0.000000		0.237798		-0.747002		12.605843		2.885990		41.688471		510.815632		126.511862		-0.128866		0.000000		0.290506		2.156246		26.420895		6.543594		1.682152		-0.862497		-0.535289		0.352207		1.256225		1.892586		-0.005179		-0.001599		0.010294		-3.959251		0.748727		2.786219		-0.288919		1.265017		1.901107		-0.035884		0.143715		-0.006775		
1.098818		-47.154664		804.220727		186.047102		0.113350		0.000000		0.236877		-0.745958		12.722307		2.943161		40.411476		500.840285		127.991684		-0.129466		0.000000		0.289363		2.140779		26.531788		6.780328		1.613723		-0.925381		-0.412041		0.352200		1.256220		1.892632		-0.002030		0.003621		0.012913		-4.094438		0.706258		2.679313		-0.288922		1.265016		1.901179		-0.035894		0.150107		-0.007670		
1.102000		-46.064155		798.176792		185.777693		0.113232		0.000000		0.236457		-0.743639		12.885406		2.999111		40.089560		493.067784		129.410685		-0.130187		0.000000		0.288344		2.170837		26.699469		7.007549		1.480038		-0.998179		-0.350059		0.352203		1.256221		1.892677		0.000603		0.006469		0.014282		-4.205677		0.645732		2.612124		-0.288933		1.265017		1.901249		-0.034475		0.155473		-0.008499		
1.105182		-45.124129		796.284630		185.380694		0.113445		0.000000		0.236703		-0.741734		13.089068		3.047226		40.303297		487.410006		130.323967		-0.130839		0.000000		0.287482		2.218591		26.830623		7.173993		1.326795		-1.045603		-0.389992		0.352216		1.256225		1.892719		0.002002		0.004990		0.014238		-4.297095		0.582573		2.600965		-0.288954		1.265019		1.901314		-0.032486		0.158907		-0.008845		
1.108364		-44.287617		798.090816		184.751599		0.113875		0.000000		0.237435		-0.746032		13.444002		3.112175		40.202518		483.779704		129.885369		-0.131049		0.000000		0.286840		2.222072		26.739452		7.179019		1.198050		-1.046615		-0.508677		0.352242		1.256233		1.892762		0.002046		-0.000499		0.013398		-4.357773		0.539413		2.630959		-0.288982		1.265021		1.901370		-0.030667		0.159826		-0.008187		
1.111545		-43.521622		802.602171		183.948510		0.114362		0.000000		0.238243		-0.755307		13.928976		3.192382		39.244009		482.063847		127.451031		-0.130569		0.000000		0.286482		2.140033		26.287597		6.950087		1.126519		-1.001472		-0.635371		0.352271		1.256242		1.892808		0.001022		-0.007649		0.012657		-4.369280		0.531126		2.666021		-0.289011		1.265022		1.901417		-0.029455		0.158057		-0.006341		
1.114727		-42.984570		808.707732		183.130205		0.114811		0.000000		0.238778		-0.763809		14.370266		3.254112		37.538570		481.975507		123.136492		-0.129464		0.000000		0.286410		1.985395		25.491126		6.512609		1.132256		-0.929973		-0.698614		0.352300		1.256254		1.892855		-0.000656		-0.013574		0.012654		-4.321917		0.556631		2.662449		-0.289039		1.265022		1.901455		-0.029050		0.154215		-0.003695		
1.117909		-42.898309		815.557247		182.308885		0.115250		0.000000		0.239020		-0.769868		14.636289		3.271781		35.649219		483.026165		117.854164		-0.128081		0.000000		0.286522		1.809768		24.521089		5.982978		1.215426		-0.861472		-0.676834		0.352317		1.256268		1.892905		-0.002661		-0.016727		0.013433		-4.226047		0.604550		2.588673		-0.289062		1.265022		1.901488		-0.029438		0.149821		-0.000988		
1.121091		-43.353899		822.651046		181.137490		0.115786		0.000000		0.239215		-0.777713		14.757306		3.249375		34.072239		484.668091		112.706749		-0.126776		0.000000		0.286668		1.657946		23.583663		5.484281		1.354022		-0.822200		-0.614036		0.352317		1.256286		1.892953		-0.004763		-0.017599		0.014495		-4.109849		0.665549		2.441307		-0.289081		1.265020		1.901520		-0.030437		0.146762		0.001127		
1.124273		-44.295354		829.624528		179.053739		0.116479		0.000000		0.239586		-0.792952		14.851500		3.205326		32.877771		486.379347		108.296792		-0.125706		0.000000		0.286747		1.540062		22.782814		5.072847		1.507482		-0.826398		-0.591165		0.352295		1.256307		1.893002		-0.006748		-0.017940		0.015113		-4.007899		0.733928		2.252045		-0.289096		1.265019		1.901551		-0.031787		0.146273		0.002359		
1.127455		-45.611764		836.101879		175.716461		0.117269		0.000000		0.240148		-0.817634		14.987905		3.149880		31.729059		487.728993		104.435296		-0.124787		0.000000		0.286755		1.435343		22.063567		4.724389		1.629444		-0.871917		-0.665143		0.352255		1.256330		1.893051		-0.008436		-0.019106		0.014677		-3.943196		0.800012		2.075701		-0.289109		1.265019		1.901585		-0.033278		0.148129		0.002784		
